<?xml version="1.0" encoding="UTF-8" standalone="no"?>
<svg width="409px" height="100px" viewBox="0 0 409 100" version="1.1" xmlns="http://www.w3.org/2000/svg" xmlns:xlink="http://www.w3.org/1999/xlink" xmlns:sketch="http://www.bohemiancoding.com/sketch/ns">
    <!-- Generator: Sketch 3.2.2 (9983) - http://www.bohemiancoding.com/sketch -->
    <title>Untitled 4</title>
    <desc>Created with Sketch.</desc>
    <defs></defs>
    <g id="Page-1" stroke="none" stroke-width="1" fill="none" fill-rule="evenodd" sketch:type="MSPage">
        <path d="M76.992,3.4 L76.992,3.544 L76.992,3.4 L50.064,56.392 L23.568,3.832 L23.568,3.4 L0.96,3.4 L0.96,97 L23.568,97 L23.568,49.624 L45.168,97 L54.96,97 L76.992,49.192 L76.992,97 L99.456,97 L99.456,3.4 L76.992,3.4 Z M188.304,23.56 L188.304,3.4 L117.888,3.4 L117.888,97 L188.304,97 L188.304,76.984 L140.352,76.984 L140.352,60.28 L178.224,60.28 L178.224,40.264 L140.352,40.264 L140.352,23.56 L188.304,23.56 Z M274.464,3.4 L274.464,61.72 L227.808,3.4 L205.344,3.4 L205.344,97 L227.808,97 L227.808,40.984 L274.464,97 L296.928,97 L296.928,3.4 L274.464,3.4 Z M359.048,0.952 C331.688,0.952 309.656,23.128 309.656,50.344 C309.656,77.56 331.688,99.592 359.048,99.592 C386.264,99.592 408.296,77.56 408.296,50.344 C408.296,23.128 386.264,0.952 359.048,0.952 L359.048,0.952 Z M359.048,77.992 C343.64,77.992 331.256,65.608 331.256,50.344 C331.256,35.08 343.64,22.552 359.048,22.552 C374.312,22.552 386.696,35.08 386.696,50.344 C386.696,65.608 374.312,77.992 359.048,77.992 L359.048,77.992 Z" id="MENO" fill-opacity="0.912986866" fill="#FFFFFF" sketch:type="MSShapeGroup"></path>
    </g>
</svg>