<?xml version="1.0" encoding="UTF-8" standalone="no"?>
<svg width="49px" height="48px" viewBox="0 0 49 48" version="1.1" xmlns="http://www.w3.org/2000/svg" xmlns:xlink="http://www.w3.org/1999/xlink" xmlns:sketch="http://www.bohemiancoding.com/sketch/ns">
    <!-- Generator: Sketch 3.4.2 (15855) - http://www.bohemiancoding.com/sketch -->
    <title>social-twitter</title>
    <desc>Created with Sketch.</desc>
    <defs></defs>
    <g id="Page-1" stroke="none" stroke-width="1" fill="none" fill-rule="evenodd" sketch:type="MSPage">
        <g id="Desktop-HD" sketch:type="MSArtboardGroup" transform="translate(-1195.000000, -84.000000)">
            <g id="You-want-something?--+-Bitmap-+-Group" sketch:type="MSLayerGroup" transform="translate(786.000000, 84.000000)">
                <g id="Header" sketch:type="MSShapeGroup">
                    <g id="Social-Network-Icons-+-I-wanna-been-rich-an" transform="translate(302.000000, 0.000000)">
                        <g id="Social-Network-Icons" transform="translate(43.000000, 0.000000)">
                            <g id="twitter" transform="translate(64.390244, 0.000000)">
                                <rect id="Rectangle" x="0" y="0" width="47.2195122" height="46.9333333"></rect>
                                <ellipse id="Oval" fill-opacity="0" fill="#FFFFFF" cx="23.6097561" cy="23.4666667" rx="23.6097561" ry="23.4666667"></ellipse>
                                <path d="M32.7597696,17.9687804 C33.714833,17.3697337 34.4476656,16.4198565 34.7915942,15.2883239 C33.8973797,15.8443835 32.9092463,16.2465213 31.8549727,16.4642303 C31.0136704,15.5212865 29.811243,14.9333333 28.4805037,14.9333333 C25.927495,14.9333333 23.8586319,17.1034908 23.8586319,19.7797872 C23.8586319,20.1597381 23.8969932,20.5299822 23.9763613,20.8835861 C20.134943,20.6811305 16.7287267,18.7536424 14.4468925,15.8194232 C14.048729,16.5377245 13.8212069,17.3697337 13.8212069,18.2572103 C13.8212069,19.9378689 14.637376,21.4216188 15.8781647,22.2924551 C15.1201989,22.2674948 14.4072084,22.0470124 13.7828457,21.686475 L13.7828457,21.7461024 C13.7828457,24.0951418 15.3754998,26.0545236 17.4933065,26.4982618 C17.1044026,26.6119698 16.6969795,26.6688237 16.2736827,26.6688237 C15.9760521,26.6688237 15.6850356,26.6397034 15.4046015,26.5828494 C15.9919258,28.5075642 17.6996637,29.9108864 19.7235515,29.9483268 C18.1401569,31.2490346 16.1466936,32.0228032 13.981266,32.0228032 C13.6082357,32.0228032 13.2391738,32.002003 12.8780488,31.9562425 C14.9244242,33.3304444 17.3544123,34.1333333 19.9656243,34.1333333 C28.4712441,34.1333333 33.1195719,26.7478646 33.1195719,20.3427801 C33.1195719,20.1320044 33.1169263,19.9226154 33.1076667,19.7159998 C34.0111407,19.0323655 34.7968854,18.1781694 35.4146341,17.2061053 C34.585237,17.5916029 33.6936682,17.8522991 32.7597696,17.9687804 Z" id="Shape" fill="#FF0069"></path>
                            </g>
                        </g>
                    </g>
                </g>
            </g>
        </g>
    </g>
</svg>