<?xml version="1.0" encoding="UTF-8" standalone="no"?>
<svg width="48px" height="48px" viewBox="0 0 48 48" version="1.1" xmlns="http://www.w3.org/2000/svg" xmlns:xlink="http://www.w3.org/1999/xlink" xmlns:sketch="http://www.bohemiancoding.com/sketch/ns">
    <!-- Generator: Sketch 3.4.2 (15855) - http://www.bohemiancoding.com/sketch -->
    <title>social-facebook</title>
    <desc>Created with Sketch.</desc>
    <defs></defs>
    <g id="Page-1" stroke="none" stroke-width="1" fill="none" fill-rule="evenodd" sketch:type="MSPage">
        <g id="Desktop-HD" sketch:type="MSArtboardGroup" transform="translate(-1131.000000, -84.000000)">
            <g id="You-want-something?--+-Bitmap-+-Group" sketch:type="MSLayerGroup" transform="translate(786.000000, 84.000000)">
                <g id="Header" sketch:type="MSShapeGroup">
                    <g id="Social-Network-Icons-+-I-wanna-been-rich-an" transform="translate(302.000000, 0.000000)">
                        <g id="Social-Network-Icons" transform="translate(43.000000, 0.000000)">
                            <g id="facebook">
                                <rect id="Rectangle" x="0" y="0" width="47.2195122" height="46.9333333"></rect>
                                <ellipse id="Oval" fill-opacity="0" fill="#FFFFFF" cx="23.6097561" cy="23.4666667" rx="23.6097561" ry="23.4666667"></ellipse>
                                <path d="M25.0206598,37.3333333 L19.7863082,37.3333333 L19.7863082,25.0651182 L17.1707317,25.0651182 L17.1707317,20.8379029 L19.7863082,20.8379029 L19.7863082,18.3000252 C19.7863082,14.8516705 21.2624177,12.8 25.4588548,12.8 L28.951621,12.8 L28.951621,17.0287638 L26.7686421,17.0287638 C25.1350063,17.0287638 25.0270568,17.61949 25.0270568,18.7219726 L25.0198601,20.8379029 L28.9756098,20.8379029 L28.5126263,25.0651182 L25.0198601,25.0651182 L25.0198601,37.3333333 L25.0206598,37.3333333 Z" id="Shape" fill="#FF0069"></path>
                            </g>
                        </g>
                    </g>
                </g>
            </g>
        </g>
    </g>
</svg>