<?xml version="1.0" encoding="UTF-8" standalone="no"?>
<svg width="49px" height="48px" viewBox="0 0 49 48" version="1.1" xmlns="http://www.w3.org/2000/svg" xmlns:xlink="http://www.w3.org/1999/xlink" xmlns:sketch="http://www.bohemiancoding.com/sketch/ns">
    <!-- Generator: Sketch 3.4.2 (15855) - http://www.bohemiancoding.com/sketch -->
    <title>social-youtube</title>
    <desc>Created with Sketch.</desc>
    <defs></defs>
    <g id="Page-1" stroke="none" stroke-width="1" fill="none" fill-rule="evenodd" sketch:type="MSPage">
        <g id="Desktop-HD" sketch:type="MSArtboardGroup" transform="translate(-1259.000000, -84.000000)">
            <g id="You-want-something?--+-Bitmap-+-Group" sketch:type="MSLayerGroup" transform="translate(786.000000, 84.000000)">
                <g id="Header" sketch:type="MSShapeGroup">
                    <g id="Social-Network-Icons-+-I-wanna-been-rich-an" transform="translate(302.000000, 0.000000)">
                        <g id="Social-Network-Icons" transform="translate(43.000000, 0.000000)">
                            <g id="youtube-play" transform="translate(128.780488, 0.000000)">
                                <rect id="Rectangle" x="0" y="0" width="47.2195122" height="46.9333333"></rect>
                                <ellipse id="Oval" fill-opacity="0" fill="#FFFFFF" cx="23.6097561" cy="24.0104667" rx="23.6097561" ry="23.4666667"></ellipse>
                                <path d="M34.3414634,27.2684585 L34.3414634,19.6648748 C34.3414634,19.6648748 34.3414634,16 30.6426588,16 L16.5755914,16 C16.5755914,16 12.8780488,16 12.8780488,19.6648748 L12.8780488,27.2684585 C12.8780488,27.2684585 12.8780488,30.9333333 16.5755914,30.9333333 L30.6426588,30.9333333 C30.6426588,30.9333333 34.3414634,30.9333333 34.3414634,27.2684585 M27.7767478,23.4772949 L20.7501549,27.5660498 L20.7501549,19.3872896 L27.7767478,23.4772949" id="Shape" fill="#FF0069"></path>
                            </g>
                        </g>
                    </g>
                </g>
            </g>
        </g>
    </g>
</svg>