<?xml version="1.0" encoding="UTF-8" standalone="no"?>
<svg width="590px" height="161px" viewBox="0 0 590 161" version="1.1" xmlns="http://www.w3.org/2000/svg" xmlns:xlink="http://www.w3.org/1999/xlink" xmlns:sketch="http://www.bohemiancoding.com/sketch/ns">
    <!-- Generator: Sketch 3.4.2 (15855) - http://www.bohemiancoding.com/sketch -->
    <title>Desktop HD</title>
    <desc>Created with Sketch.</desc>
    <defs></defs>
    <g id="Page-1" stroke="none" stroke-width="1" fill="none" fill-rule="evenodd" sketch:type="MSPage">
        <g id="Desktop-HD" sketch:type="MSArtboardGroup" transform="translate(-439.000000, -27.000000)" fill="#FF0069">
            <g id="Desktop-HD-+-Meno" sketch:type="MSLayerGroup" transform="translate(434.000000, -62.000000)">
                <path d="M151.6,220.2 L152,216.2 L151.6,156.2 L152,151.8 L151.8,132 L152,128.2 L151.6,119.6 L151.8,116.2 L151.6,108 L152,104.2 L149.6,100 L145.4,97.8 L139.6,99.6 L135.4,102.2 L127,111 L124.4,114.2 L122,116.4 L119.2,120 L101.6,138 L99,141.4 L86.8,153.8 L83.2,156.2 L79,154.6 L76.6,151.2 L73.8,148.4 L70.2,143.8 L65.8,139.8 L47.6,119.6 L44.8,117.2 L39.6,111 L36.4,108.2 L31.2,102.8 L26.6,99.4 L21,97.8 L16.6,99.8 L14.4,104 L15,116.2 L14.4,124 L14.8,127.6 L14.6,159.6 L15,163.6 L14.4,183.8 L14.8,187.6 L14.6,231.8 L16.8,236 L20.8,238.6 L24.8,238 L32.6,238.4 L37,237.8 L43.4,238.2 L49,235.8 L51.4,232.2 L50.8,211.2 L51.4,205 L51.2,200.8 L51.6,193.6 L51.2,189.2 L51.2,181.4 L53,179.6 L55,180.4 L58.2,183 L60.6,186 L68.8,194.2 L71.4,197.4 L76.8,202.6 L81,205.6 L85.4,205.8 L89.4,202.8 L92.2,199.8 L94.6,197.4 L100.2,190.8 L103,188.8 L111.2,180.4 L113.8,179.2 L115.4,182.2 L115,193.2 L115.6,201.2 L115.2,209 L115.6,216.4 L115.2,220 L115.6,229 L115.6,232 L117.2,236.6 L121.4,237.8 L145.6,238.6 L149.8,236.4 L152.2,230.6 L151.6,220.2 Z M26.8,110.8 L26.6,109 L28.2,109 L27.8,111.8 L26.8,110.8 Z M29.2,111.2 L32.4,111.6 L30.6,113 L29.2,113.2 L29.2,111.2 Z M23.2,114.6 L24.6,113.8 L24,115.2 L21.8,116.8 L20.8,116.6 L23.2,114.6 Z M29.4,117.2 L30.4,117.6 L29.6,119.4 L29.2,118.4 L29.4,117.2 Z M140.6,126.6 L141.2,126.4 L140.6,128 L139.8,129.2 L139.6,127.6 L140.6,126.6 Z M118.4,131.6 L120.4,131.8 L120.4,132.8 L118.6,133.8 L118,132.8 L118.4,131.6 Z M147.6,133.8 L147.4,137.2 L146.4,137 L146.2,133 L147.6,133.8 Z M138.2,136.4 L139.2,137.6 L140.6,138.6 L140.6,140 L139,139.2 L137.4,137 L137.2,136 L138.2,136.4 Z M143.6,141.2 L143,141.8 L144.6,141.4 L145.6,140 L146.4,140.2 L146.6,142 L147,143.8 L144.8,143.6 L145.4,146 L146.2,147.2 L144.6,147.4 L145,148.8 L146,150 L145,150.2 L144.6,149.2 L143.4,147 L141.2,148 L140.6,149.4 L139.4,151.4 L137.6,150.4 L137.6,148.8 L140,149.4 L140.8,146.6 L143.2,144.4 L142.4,142.2 L141.2,142.2 L142.2,141.4 L143.6,141.2 Z M115,142.6 L115.8,141.6 L117.8,141.6 L119.6,140.8 L117.6,142.8 L115.8,144 L115.8,145.4 L114.8,144.8 L115,142.6 Z M120.8,144.6 L120.2,142 L121.6,142.4 L120.8,144.6 Z M107.6,143.8 L107.2,144.8 L107,144.6 L107.6,143.8 Z M111.4,144.8 L109.2,146.6 L107.2,144.8 L108.8,145 L111.4,144.8 Z M105.8,146 L106.4,147.6 L107.2,148.4 L106.8,149.8 L106.6,148.6 L106,147.8 L104.6,147.4 L104.4,145.4 L105.8,146 Z M136,145.8 L136.6,145.6 L137.6,146.4 L136,147.6 L136,145.8 Z M122.8,148.2 L123.2,149.4 L124,150.2 L120.6,150.2 L119.4,147 L121.2,147.4 L122.8,148.2 Z M148.8,190 L146.6,192.4 L148.6,195.8 L148.2,200 L146.6,201 L148.6,204.6 L146.4,208.2 L141.6,206 L138.8,204.2 L138.4,205.8 L137.2,206.4 L139.8,209.8 L138.2,212.4 L139.2,212.8 L140.4,212.4 L141,212.6 L140.6,210.6 L142.8,208.2 L145.4,209.6 L147.4,210.2 L146.8,211.6 L144.6,210.8 L144.6,213.6 L139,219.2 L137.2,217.4 L135,217 L134.8,220.2 L132.2,221.8 L132.2,219.2 L132.6,218.2 L133,216.6 L130.2,217.4 L129.2,217.8 L130.6,215.4 L134,215.6 L133.8,213.4 L133,211.8 L130.4,210.6 L129.4,209.4 L129.4,213.4 L130.4,212.4 L132.2,213 L131.6,214.2 L128.2,214.2 L127.8,216.6 L126,218.8 L125.8,217.6 L125.8,216.4 L126.2,215.2 L125.8,214.4 L124.2,215 L123.8,214.2 L124.2,213.2 L122.4,212.4 L121.4,211 L120.4,211.4 L121.4,210.8 L124.2,213.2 L125.4,212.8 L128,210.8 L127.2,207.2 L128.8,205.8 L131,207.4 L132,208.6 L131.6,204.2 L134,201.8 L131.2,201.8 L128.4,201.2 L131,198 L135,198 L135.2,197.8 L136.2,198.4 L137.2,197 L137.4,194.4 L138.8,195.4 L138.4,197.2 L140.6,196.6 L143.2,199.2 L142.4,200.8 L144.8,201.4 L144.6,196.6 L141.4,196 L140.6,193.8 L139.2,192.4 L140.8,190.6 L139.4,189.6 L136.2,192.2 L135.6,194.4 L130.2,195.4 L129.6,196 L129.6,197.4 L128.6,196.8 L126.2,198 L122.2,198.2 L125.6,200 L127,203 L128,202.6 L128.2,203.4 L127.2,203.4 L124.4,205 L121.4,204.6 L120.2,204.6 L120.8,203.8 L120.6,202 L120.4,199.6 L119.8,198 L119.2,195.6 L118.4,194.8 L119.2,194 L121.8,194.2 L125.4,195 L126.2,196 L124.2,193.2 L122.8,193.6 L121.8,192.2 L124.6,192.8 L126,193 L125.4,191.8 L124.4,190.2 L126.2,190.2 L127.6,190.8 L128.4,191 L127.6,196 L128.4,196 L128.4,194.2 L129.2,194.6 L130.6,193 L133,193 L133.2,190.8 L130.4,190.4 L130.4,188.8 L132.2,186.8 L135,186.4 L138.4,186.8 L139,184.4 L142.4,182.6 L144.8,179.2 L141.6,178.2 L138.2,176.4 L136.6,175.8 L137.6,178 L141.8,179.4 L141.8,182.4 L139.4,181.2 L139,183.6 L137.6,183.6 L136.6,179.2 L133.8,179.6 L135.8,179.8 L135.6,181 L134.8,181.2 L133.4,183.4 L135,184.2 L132.2,185.4 L128.2,186.8 L126.8,186.8 L124.2,185.6 L121.2,187.4 L120,189.2 L121.4,189.4 L121.2,190.6 L120,190.8 L119.2,189.4 L119.8,186.4 L118.4,182 L117.2,178.2 L116.4,178.8 L115,177 L112,176.4 L111,176.6 L111.2,177.6 L110.2,177 L107.6,176.8 L104.2,180.8 L101.8,184 L102.4,181.2 L99.4,180.8 L98.6,182 L100,183.6 L99.6,187 L99,186.2 L98.6,185.4 L95,183.6 L90.6,185.2 L88.8,183.6 L90.4,180.4 L89.2,179.4 L87.8,179.2 L86.2,181.2 L84.4,181.2 L85.6,178.8 L82.8,176.8 L81.4,175.4 L81.2,174.6 L82.6,174.2 L82.2,175 L84,176 L86.2,177.8 L87.6,179 L88,177 L89,176.8 L88.2,175.2 L86.8,174.8 L85.2,173.6 L85.8,172.2 L86.6,171.8 L88,171.4 L87.8,172.4 L86.4,173.2 L87,173.6 L88.4,173.4 L89.2,174.6 L88.6,175.2 L90,175.4 L91,177 L90,178.6 L90.8,180.4 L94.4,182.2 L98.2,182 L97.6,179.8 L99.2,177.4 L96.4,177.8 L100,173.6 L99.4,172.2 L101,170.6 L100.4,169.4 L99.2,168.8 L97.6,169.2 L95.8,169.2 L94,166.8 L94.2,164.6 L96,165.6 L97.2,164.8 L98.2,165.6 L95.8,167 L97.6,168.8 L98,167.8 L99.6,167.6 L100.6,168.8 L101,169.6 L103.4,170.8 L102.8,171.8 L102.6,172.6 L101.8,171.6 L100.8,172 L101.6,174.6 L101.4,177 L103.4,177.6 L105.2,175.4 L106,174.4 L104.8,174.4 L104.4,169.8 L107.2,166.4 L108.2,167.4 L108.8,165.6 L112.6,166 L107,170 L106.2,172.2 L106.6,174.2 L107.8,174.4 L109.6,174 L112,172.2 L113.8,172.2 L114,169.2 L114.6,167.8 L116.8,167.2 L117.8,164.8 L121.2,164.6 L124.4,164.8 L125.4,164.4 L123.2,162.8 L122,163.8 L118.2,163.8 L115.8,164.6 L113.4,163.2 L114,161 L113.2,159.6 L114.8,160.6 L115.8,159.8 L118.8,158.6 L119,157.6 L117.2,156 L118,156.4 L119.6,156.6 L119.8,154 L120.2,152.6 L120.2,152 L121.8,152.4 L126.4,152.4 L126,151.2 L125,150.2 L124.4,150.2 L125,149.8 L126.6,150.6 L128,152.2 L128.4,151.4 L128,149.2 L128.6,148.2 L131,150.2 L130,152.4 L132.8,152.6 L131.4,153.4 L129.8,152.6 L127.6,153 L123.4,155 L122.6,157.4 L122.2,158.4 L120.8,158.8 L119,159.4 L117.2,159.8 L119,161.4 L121.2,162.8 L121.4,161.2 L122.6,160.2 L124,159.2 L124.6,161.6 L128.2,161.4 L128.2,159.2 L129,158.2 L130.8,158.8 L131,156.6 L134,154.4 L134,151.2 L135.2,151 L137.4,152.6 L135,156.4 L135.4,157.8 L134.4,158.4 L132.2,156.8 L132.2,159 L132.4,160.2 L133,160.8 L132.2,161 L132,162.6 L135.6,163.8 L136.4,162.4 L137.2,158.6 L137.2,155.2 L138.4,153.8 L139,152.6 L140.6,152 L141.6,153.4 L142.4,153 L142.8,152.4 L144,152.4 L145,152.8 L147.2,152.4 L147.8,151.8 L148.6,152 L148,153 L146.4,153.8 L145.2,154.2 L145.2,156.4 L143.4,156.4 L144.6,159 L146.8,158.4 L147.4,160 L146,160.6 L146,161.6 L148.6,163.8 L148.4,167.2 L147,168.4 L146.8,166.8 L148,165.4 L146.8,164.6 L144.6,164.2 L145.8,166.4 L145,167.6 L145.4,170.4 L144.4,170.4 L143.8,172.2 L144.2,175.8 L145.2,174 L147.2,175.4 L147.8,173.8 L148.6,177 L148.4,181.8 L148.8,183.2 L147.6,184.2 L149,186.2 L148.8,190 Z M109,153.6 L108.2,152.6 L107.6,153.2 L106.6,153.6 L107.6,153 L108.4,152.4 L108.4,150 L110.4,150.8 L108.6,152.4 L110,153.6 L111.6,154.6 L110.2,155.4 L109.4,155 L109,153.6 Z M103.4,150.2 L105.4,152 L104.6,153.4 L103.4,152.6 L104,152 L103.2,151.6 L101.6,151 L103.4,150.2 Z M114.6,151.6 L115.2,153.8 L113.4,156.4 L113.2,153.4 L114.6,151.6 Z M128.4,154.8 L128,156.4 L126.2,157 L127.2,155.4 L128.4,154.8 Z M143.2,157.4 L142.6,156.8 L140.6,156.2 L140.2,157.8 L140.8,159 L138,160.4 L140.4,161.4 L143.2,157.4 Z M106.6,160.6 L105.4,159.6 L106,158.2 L106.8,157 L108.4,157.4 L108.2,159.8 L106.6,160.6 Z M40.8,159.2 L39.2,158.6 L40.2,158.2 L41.4,158.2 L40.8,159.2 Z M98.8,158.2 L99.4,159.6 L98.6,160.4 L99,159.4 L97.6,158.6 L98.8,158.2 Z M108.2,163 L109.2,162.4 L109.4,164.4 L108,164.4 L108.2,163 Z M103.4,164.6 L101.8,164.6 L102.6,163 L103.4,164.6 Z M128.6,170.4 L128.6,167.8 L130,166.6 L131.6,165.4 L131.2,163.6 L128.8,163.4 L128.2,164.8 L126.6,165.6 L125.8,166.4 L125,168.4 L123,167.4 L120.4,167 L118.2,167.8 L118.4,168.8 L120,169 L121.2,169 L121.2,170.2 L127.6,170.2 L130,172.8 L131.4,174.4 L132.2,173.4 L131.6,171.4 L128.6,170.4 Z M80.4,166.8 L82.4,165.4 L82.8,164.2 L83,165.4 L81.8,167.2 L80.4,166.8 Z M143.2,166.4 L141.8,167.6 L140.6,166.6 L140.6,165.2 L138.4,168.2 L140.6,170.6 L141.2,172 L142.6,170.4 L143.2,168.6 L144.6,167.6 L143.2,166.4 Z M37,169.6 L36.2,168.6 L35.4,166.6 L36.8,167 L37.6,167.4 L37,169.6 Z M129.8,168.4 L130.8,169 L131.8,167.4 L130.8,166.8 L129.8,168.4 Z M29,169.6 L28,168.8 L29,167.6 L31.8,169.6 L33.2,170.2 L31.8,169.8 L30.2,169.2 L29,169.6 Z M88.2,168 L89.8,168.8 L89.6,170.4 L87,167.8 L88.2,168 Z M21.4,170.4 L22.6,169.6 L24,171.6 L23.8,173.8 L21.4,174.2 L23,172.6 L21.4,170.4 Z M118.2,171.8 L116.8,169.8 L115.6,171 L116.4,171.8 L118.2,171.8 Z M132.8,171.2 L134,172 L136.4,170.6 L134.6,169.8 L132.8,171.2 Z M126.6,175 L127.8,176 L129.6,174.6 L129,173.8 L127.2,172.4 L121.2,172 L120.4,175.6 L119.2,172 L116.4,172.4 L116.8,173.8 L116,176.6 L118,177 L120,178.8 L121.6,180.8 L122,178.8 L122.8,177.6 L124.6,178.2 L123.2,180.4 L125.2,181.6 L127,180.4 L128.2,181.2 L127.4,184 L129,185.4 L129.2,183 L127,178.6 L124.2,175.4 L125.4,174.4 L126.6,175 Z M92.6,174.6 L95,173 L96.4,173.2 L97,174.6 L94.2,174.4 L93.8,176 L92.8,175.4 L92.6,174.6 Z M140,174.6 L140.4,176.8 L140.6,176.4 L141.8,177 L142.6,176.4 L140.6,174.2 L140,174.6 Z M77.2,177.8 L78.2,176.6 L77.4,175.8 L77,174.8 L78.2,174.6 L78.8,176.6 L77.8,178.6 L76,178.8 L77.2,177.8 Z M34.4,182.8 L32.6,182.6 L33.4,182 L34.4,182.4 L35,181.8 L35.4,181 L36.2,181.2 L34.4,182.8 Z M74.2,182.2 L74.6,181.2 L76.6,181.2 L76.2,182.4 L74.2,182.2 Z M147.6,183 L145.4,182.4 L145.4,185 L144.2,184.6 L142,187.2 L141.6,190 L144.2,189.2 L143.2,188 L147.2,184.2 L147.6,183 Z M73.8,185 L71.8,185.4 L73.2,184.2 L74.6,183.6 L73.8,185 Z M27.2,185.4 L25.6,186.2 L23.8,185 L24.2,183.8 L25.4,185.4 L26.4,184.6 L27.4,184.2 L27.2,185.4 Z M78.8,186.2 L77.8,185.4 L77.2,186 L76.4,186.4 L76.4,185.4 L77.8,185.2 L78.8,184.6 L79.8,185.2 L78.8,186.2 Z M96.6,189.4 L94,188.2 L92.4,186.2 L93,184.8 L95.4,186.6 L96.6,188.6 L97.6,188.4 L96.6,189.4 Z M33.4,189.4 L32.2,188.8 L31.2,187.6 L31.8,186.8 L33.2,188.2 L32.4,188.8 L33.4,189 L34.8,189.4 L33.4,189.4 Z M146.4,186.8 L144.2,189.2 L146.8,188.4 L146.4,186.8 Z M90.8,191.4 L89.8,190.4 L89.6,189.6 L88,189.2 L88.6,187.6 L90.6,187 L91.2,189.4 L90.8,191.4 Z M136.8,201.6 L137.8,202 L139.8,200.8 L137.8,199.8 L136.8,201.6 Z M142.8,203.4 L144,204.8 L146,203.6 L144.8,202.8 L142.8,203.4 Z M122.2,206.2 L124,206 L124.6,207 L123.6,208 L123.6,209.2 L122.2,206.2 Z M118.6,207.4 L120.4,207.4 L121,209.2 L119,209 L118.6,207.4 Z M135.6,213.4 L136.6,213.4 L138,212 L138,210.4 L135.8,210.8 L135.6,213.4 Z M139.8,214.6 L140.4,212.6 L139,213.2 L137.6,214.2 L139.8,214.6 Z M122.6,218.2 L121.8,217 L122.2,215.4 L123.4,216.8 L122.6,218.2 Z M148.2,225.4 L145.8,227.6 L141.8,231.4 L141.6,230.6 L140.6,230.6 L139.4,231.6 L138.6,230.2 L140,227.8 L140.6,226.2 L138,227.4 L136.6,227.8 L137.8,223 L140.6,223.6 L144.6,223.4 L145.2,220.4 L141.8,220.4 L142.2,222.6 L140.8,219 L144,216.2 L144.8,218.2 L147.2,218.2 L146.4,220.4 L148.8,221 L147,222.8 L148.2,225.4 Z M135.6,232.8 L134.2,231.6 L132.6,230.8 L132.4,229.6 L132.2,228.6 L131,226.8 L129,225.6 L128.2,226.2 L128.2,225.4 L131.8,225.8 L134.2,223 L136.2,225.2 L134.2,226.4 L132.6,226.6 L132.8,228.8 L134.4,231.6 L136.6,232.2 L135.6,232.8 Z M126.2,228 L125,229.2 L124.6,227.2 L126.8,226.6 L126.2,228 Z M128.8,232.6 L128.2,231 L129.2,231.2 L130.4,231.8 L128.8,232.6 Z M271.6,212.4 L269,208.4 L263,206.4 L236.6,206 L232.8,206.6 L228.4,206.2 L224,206.6 L219.8,204.2 L218,198 L218.2,188.2 L220,184 L223.6,181.8 L231.4,181.8 L235.4,181.4 L246,182 L251.4,181.6 L255.6,182 L259.2,181.8 L263.2,179.6 L265.2,175.8 L265.6,160 L265.2,156 L263.4,152.2 L260,150 L252,149.8 L248,150.2 L243.8,150.2 L239.2,149.8 L223.4,150 L220,147.8 L217.6,144.2 L217.2,138 L219.2,132.2 L225.4,130.4 L263.8,130.2 L268,128 L270.2,124.4 L269.8,116.2 L269.2,112.4 L269.4,108 L270,104.2 L268,100.2 L263.8,98.4 L247.8,98.2 L244.2,98.6 L240.2,98 L231.4,98.4 L227.4,98 L219.6,98.2 L216,97.8 L189.8,98.4 L184,99.8 L182,104.2 L182.4,112.2 L181.6,118 L182.4,128.2 L182,132.4 L182.4,136 L182.4,171.8 L181.8,176 L182.4,183.8 L182,191.8 L182.6,196 L182.2,200.4 L182.4,204.2 L181.8,207.8 L182.2,212.4 L182.2,216.4 L182.6,224.2 L182.4,228.2 L181.6,232.2 L184.2,236 L188,238.2 L233.2,237.8 L236.8,238.4 L249,237.8 L261.2,238.6 L265,238.2 L269.2,236.2 L271,232.4 L271.4,228.6 L271.2,216.2 L271.6,212.4 Z M225,101 L225,102.2 L225.2,103.2 L224.6,103.8 L225,103.2 L224,101.2 L225,101 Z M197.8,106.4 L198.6,105.4 L199.4,105.2 L200.2,105.6 L200.8,105 L202.6,106 L203.4,107.8 L200.8,107.4 L199,105.8 L198.8,107 L197.8,107.6 L197.8,106.4 Z M187,105.8 L188.4,105.4 L188.2,107 L187,107.6 L187,105.8 Z M214.2,106.8 L214.8,106.8 L215.8,105.6 L217.2,105.8 L216,107.2 L213.2,107.2 L214.2,106.8 Z M221.2,107 L222,107.6 L222,108.2 L220.8,107.8 L221.2,107 Z M206.6,108 L207.6,108.4 L208.4,109 L209.8,109.4 L210.2,108 L211.2,107.2 L211.8,108.8 L211,110.8 L209.8,110.2 L208.4,109 L206.6,108.8 L206.6,108 Z M238.4,107.6 L240.2,107.2 L241,108.2 L240,108.8 L238.6,108 L237.2,108.2 L238.4,107.6 Z M194.4,108 L194.8,109 L193.6,109.4 L193.2,108 L194.4,108 Z M214.4,111.2 L215.6,110.4 L216.4,110.4 L216,111 L214.6,111.4 L214.4,112.6 L218,111.4 L221.4,109.8 L221.8,110.8 L218.2,112.8 L217,116.6 L216.4,116.6 L216,114 L213.2,114 L212.4,112 L214.4,111.2 Z M227,111 L228.4,110.8 L227.6,111.8 L226.6,112 L227,111 Z M231.4,113.2 L232.4,114.4 L231,114.4 L230.2,113.2 L231.4,113.2 Z M239.6,116 L238.4,115.8 L239.2,114.2 L240.8,114.8 L239.6,116 Z M207.2,117.6 L208.4,116.8 L209.6,116.4 L208.8,117.6 L207.2,117.6 Z M190,117.2 L189.8,118 L189.4,117.4 L189,116.6 L190,117.2 Z M243.8,116.6 L245.6,116.8 L244.6,118 L243.2,117.6 L243.8,116.6 Z M225,117.8 L223.2,120 L223.6,122 L224,123 L225.4,122.2 L226.4,120.4 L226.2,121 L226.6,122.2 L225,123.8 L224,123.6 L222.8,122.2 L221,120.8 L220.2,118.8 L220.4,117.2 L221.6,117.8 L223.2,118.2 L225,117.8 Z M207,119.6 L206,120.8 L205.4,119.4 L207,119.6 Z M221.8,126.6 L217.8,126.6 L214.8,125.6 L214.2,125 L213,125.6 L213,124.4 L214,124.8 L216,123.6 L216,122.2 L216.6,119.4 L218.8,120.8 L218,122.6 L217,124.2 L219,125.4 L221.8,124.8 L221.8,126.6 Z M242,120.8 L242.6,121.8 L242.4,122.8 L241.2,121.6 L242,120.8 Z M246.6,125 L245.2,124.4 L245,122.8 L246.2,123.4 L246.6,125 Z M209.8,123.6 L208.8,123.4 L209.6,123 L210.6,123 L209.8,123.6 Z M234.8,123.6 L232.8,125 L231.2,123.6 L233.4,123.2 L234.8,123.6 Z M187.6,126.2 L188.2,125.8 L190,127.8 L188,129.2 L188.8,127.8 L187.6,126.2 Z M202.2,127 L202.2,125.8 L203.2,126 L203.4,127.2 L202.2,127 Z M216.6,128.6 L216.4,127.6 L217.4,127.8 L217.6,128.8 L216.6,128.6 Z M210.4,129.6 L209,129.4 L208.6,128.2 L209.6,128.4 L210.4,129.6 Z M194.4,128.8 L195,130.6 L192.6,130.8 L192.4,129.6 L194.4,128.8 Z M193.2,133.6 L195.2,133 L195.6,132 L197,131 L197.2,132.6 L195.2,133.4 L193.6,134.4 L192.4,134.4 L193.2,133.6 Z M205.6,138.4 L209.2,139 L212,137.4 L211,135.8 L210,136.8 L209.4,136 L210.6,134.4 L212.4,133.4 L213.2,136.4 L211.8,139.8 L212.8,140.4 L210.4,142.2 L207.6,140.4 L205.4,140.4 L205.6,138.4 Z M199.6,137.4 L200.2,135 L202,137.2 L199.6,137.4 Z M187.4,138 L188.2,139.2 L187.8,140.2 L186.8,139.8 L187.4,138 Z M197.6,138.8 L199,138.8 L198.8,139.6 L197.6,139.6 L197.6,138.8 Z M221.6,152.2 L224.4,154 L223.4,155.4 L224.2,155.8 L225.8,155 L226.8,156.6 L225.4,156.6 L224.2,156.8 L224.8,159 L226.4,160.4 L223.4,160.4 L221.8,156.6 L219,157.8 L216.8,158.2 L215,158.2 L215,157.2 L216.6,157.2 L218,156 L219,155.2 L216.4,154.2 L213.6,153 L212.4,151.8 L210.2,151.8 L210.2,153.6 L211,154.2 L211.4,155 L212.8,155 L212.8,156 L210.2,156.4 L208.2,154.6 L206.8,154.6 L207,153.2 L208.2,152 L209,152.4 L210.2,151.8 L210.8,151 L209,147.6 L208.6,144.4 L210,144 L211.8,144 L211.8,144.6 L210.4,145.4 L211.4,148.4 L212.4,151 L214.6,151.8 L215.2,150.4 L216.8,150.6 L216.8,153.2 L221.6,152.2 Z M205,148.4 L204.2,148.6 L203.4,148.2 L202.6,147.2 L202,146.2 L203,145.8 L203.2,147.2 L204.2,147.8 L205,148.4 Z M213,147.6 L214.2,145.8 L215.4,147 L214.2,148.4 L213,147.6 Z M189.2,146.4 L188.8,147 L188.2,147.2 L188.4,148.2 L188,149.2 L187.6,147.8 L188.4,146.4 L189.2,146.4 Z M193.6,149.6 L193.6,147.2 L195,147.2 L195.4,149.8 L193.6,149.6 Z M200.8,148.6 L200.2,150.2 L198,151 L198.6,149.4 L200.8,148.6 Z M191.2,149.8 L191,150.8 L190.6,150.2 L190.4,149.4 L191.2,149.8 Z M190.6,156 L191,153.8 L192.6,153 L192.8,153 L192.4,153.8 L192.4,156 L190,156.8 L190.6,156 Z M198,157.8 L196.8,155.8 L195.2,154.8 L193.6,153.4 L193.4,153.2 L193.8,153.4 L195.6,153 L197.8,153.6 L198.2,156.2 L199.8,155.8 L200,154.6 L200.6,153.6 L202.2,154.8 L201.4,157.6 L198,157.8 Z M194.6,213.2 L192,210.6 L194.2,209.6 L189.6,208 L188.8,209.4 L187,210.4 L186,209 L188.2,206.2 L189.8,205.6 L186.6,205 L187.6,202.4 L184.8,200 L186.4,197.4 L185,194.2 L185,191 L186.8,190.4 L187.4,186.4 L188.2,183.8 L186.8,184.6 L186.6,182 L187.6,179.8 L185.8,179 L186.4,177.6 L188.2,177.4 L189.4,177.4 L191.2,176.4 L192.2,177.4 L192.8,175.2 L190.6,173.8 L191.2,172.4 L193,173.2 L195.4,172.8 L198.6,174.6 L199.4,178 L201.2,176.6 L204.2,174.6 L201.4,173.4 L199.4,171 L196.6,171 L194.2,170.8 L194.8,169.6 L195.2,168.2 L193.6,166.8 L192.6,166.6 L193.2,166.2 L194,166.8 L195.8,166.8 L197.8,168.8 L200,166.6 L201.4,165.8 L199.4,165 L199.8,163.6 L201.4,163.8 L204.2,164.6 L203.8,167.2 L200.6,169.4 L203.2,171.6 L204,170.4 L206.6,165.8 L205.2,161.8 L204.8,162.6 L204.2,163 L203.4,161.8 L204.2,161.6 L209,161.8 L216.8,159.6 L218,160.4 L217.2,160.6 L214.6,162 L215.8,164.2 L214.4,164.4 L213.4,166 L216,167 L220,163.8 L221.2,161 L221.6,160.4 L221.4,161 L222.2,162.2 L222.2,165 L226.2,162.8 L229.4,159.4 L230.6,158.4 L228.6,157.2 L228.4,155.8 L229.4,156.4 L230.8,155.8 L232.6,153.2 L234.8,155 L231.8,158.4 L228.4,161.8 L227.8,165 L226.4,166.8 L224.6,168.8 L227,170.2 L226.8,171 L223.8,171 L223.4,167.8 L219.6,166.2 L218.6,170.6 L219.6,171 L222,170.8 L221.2,173.6 L219.4,174.8 L218.2,175 L218.6,174 L220.2,172.8 L219.6,171.6 L217.4,172.6 L214.4,172.8 L213.6,173.4 L214.4,173.6 L211.2,173.6 L212.6,176.4 L213.4,176.4 L212.8,176.6 L212.8,178 L211,179 L210,178.8 L210.6,178.2 L209,177.6 L207.8,179.6 L211,180.8 L210.6,182.2 L208.8,182 L209,184 L213.2,182.4 L215.8,179.4 L214.6,177.2 L216.8,176.4 L219.8,176.4 L221.8,174.8 L223.8,175 L226.2,172.8 L228.2,174.6 L229.6,175.2 L229.4,176.2 L226.8,175.6 L222.2,178 L219.4,180 L218.8,178.4 L217.2,178.6 L217,181.2 L216,184.2 L213.2,185.8 L214.8,188 L213.2,190 L211.8,190 L211.8,190.6 L214.6,192.4 L213.8,196 L214.6,196.2 L214.2,198.6 L211.4,198.4 L209,200 L206.2,199.8 L204.6,200.4 L204.6,202.2 L206.2,203.2 L206.8,201 L211.6,201.4 L212.2,203.6 L210.4,204 L210.6,205.8 L207.4,205.8 L204.6,205.4 L204.2,207 L206.2,207.8 L207.2,208.8 L208,209.8 L211.2,207.6 L214.2,204.8 L215.2,204.8 L216.8,206.2 L217.8,210.8 L218.8,213.2 L219.6,213.8 L218.6,214.4 L218,213.6 L216.4,212.8 L216.8,209.4 L216.2,207.6 L213,207.4 L211.2,210.4 L206.6,212 L203.2,211.6 L203.8,209.2 L199.4,208 L197.4,211.2 L197,215.4 L198.6,218 L196.2,217.8 L194.6,213.2 Z M238.8,154.2 L239.4,155.2 L237.2,155.2 L236.8,153.8 L238.8,154.2 Z M255,153.8 L257.8,155.4 L259.8,156.8 L260.8,157.8 L259.6,157.2 L257,156.8 L254.2,156.2 L255,153.8 Z M246.2,154.8 L246.2,156.8 L245.4,155.6 L245,154 L246.2,154.8 Z M237.6,158.6 L235.2,160.2 L233.4,158.6 L236,156.6 L237.6,158.6 Z M212.4,158.8 L211,159.8 L208.6,158.8 L208.6,157.2 L211.2,157.4 L212.4,158.8 Z M189,161.6 L187.4,158.4 L189.4,157.4 L189.4,158.4 L190,160.2 L191,158.4 L193.8,158.4 L196,160.8 L198.2,160.2 L200.2,160.2 L200.2,162.2 L197,162 L194.2,164.4 L191.2,164.6 L191.6,162.4 L189,161.6 Z M250.6,157.4 L250.8,158.2 L249.6,158.8 L248.6,157.4 L250.6,157.4 Z M240.8,158.6 L242,159 L242.2,158.2 L243.2,157.8 L243,158.8 L241.8,159.2 L241,159.8 L240.2,159.2 L240.8,158.6 Z M254.6,158.4 L256,160.6 L256.4,161.8 L258.4,161.6 L257.4,165.8 L260.2,168.8 L257.8,169.4 L255,170.6 L253.8,172.6 L255.4,172.6 L256.4,172.8 L255.6,173.2 L254.6,173.4 L255,174 L253.6,173.6 L252.8,172 L252.6,170.8 L251.4,170 L250.2,170.8 L249.8,171.8 L250.2,173.2 L248.6,172 L246,172.6 L245.4,171.4 L246,170.2 L248,170.8 L250.2,170.4 L251.4,169.8 L253.2,169.6 L252.6,167.6 L249.6,167.6 L249.4,166.4 L252.4,165.6 L254,165.4 L254,167 L255.2,169 L256.6,165.6 L254.8,160.8 L253.8,159.4 L253.2,157.8 L254.6,158.4 Z M259.4,160.4 L257.6,160.2 L257.6,158.6 L259.2,158.8 L259.4,160.4 Z M245.4,158.8 L246.2,159.4 L246.8,161 L247.6,161.2 L246.2,161.8 L244.8,160.4 L245.4,158.8 Z M192.2,160.4 L192,161.4 L193.6,161 L192.2,160.4 Z M233.6,162.8 L233.6,161.6 L234.6,161.8 L234.8,163 L233.6,162.8 Z M244.8,163.2 L249.2,163.4 L252.6,163.2 L249.8,164.8 L246,164 L244.6,165.6 L242.6,164.6 L242.4,162.4 L244.8,163.2 Z M212,163.6 L212,164.8 L213.2,164 L212,163.6 Z M187.8,164.8 L189,166.2 L189.4,168.2 L187.4,166.8 L186.6,165 L187.8,164.8 Z M239.2,168.2 L238.4,166.6 L237.2,166.2 L236.8,165.6 L237.6,166 L239,165.8 L240.4,167 L239.2,168.2 Z M231.6,166.6 L230.8,166.2 L229.8,165.8 L230.6,166 L231.8,166 L232.2,166.4 L231.6,166.6 Z M243.2,167.6 L242.8,167 L243.6,166.8 L244.2,167.6 L243.2,167.6 Z M218.8,171.2 L216.8,170.8 L215.8,168.4 L214.8,168 L213.6,170.6 L217.2,171.6 L218.8,171.2 Z M211.4,168.4 L209.6,168.4 L210.6,169.8 L211.4,168.4 Z M241.6,169.6 L243.4,169.4 L243.6,171.6 L241.8,171.8 L241.6,169.6 Z M191.2,170.4 L190,170.6 L189,169.8 L190.6,169.6 L191.2,170.4 Z M210.4,172 L211.6,172 L211.2,171 L210.4,172 Z M233,173.6 L235,171.8 L235.8,173.6 L234.2,174.6 L233,173.6 Z M208.8,172.2 L206.8,172.6 L206.4,174.2 L208.6,174 L208.8,172.2 Z M240.4,173.8 L239,173.6 L239,172.8 L240.4,173 L240.4,173.8 Z M247.6,175.4 L247,174 L248.6,174.6 L249,175.6 L247.6,175.4 Z M239,175.2 L238,175.8 L236.6,177.2 L234.4,177 L236.4,176.6 L238,175.8 L238.6,174.6 L239.4,174.8 L239,175.2 Z M243,177.4 L241.8,176.6 L242.4,175 L243.8,176.4 L243,177.4 Z M208.4,176 L208,175.2 L206.4,176 L207,176.6 L208.4,176 Z M195.6,177.2 L194.2,176.8 L194.6,178.4 L195.6,177.2 Z M204.4,177.4 L204.2,178.2 L205.2,178.8 L204.4,177.4 Z M198.4,182 L200,180.6 L200.6,179 L199.2,178.8 L198,179.4 L198.4,180.4 L198,181 L197.6,179.2 L198.4,178.2 L197.2,177.8 L192.6,179.2 L193.6,181.2 L198.4,182 Z M199.8,186.4 L201.6,186.4 L200.6,185.2 L199.8,186.4 Z M204.6,186.6 L206,186.8 L205.6,185.4 L204.4,185.2 L204.6,186.6 Z M194.2,185.8 L192.8,186 L191,185.4 L189.2,186.4 L190.8,187.4 L194.2,187.2 L194.2,185.8 Z M198.2,185.8 L197,186.4 L199,186.8 L198.2,185.8 Z M213.4,192 L211.8,192.6 L213.4,193.2 L213.4,192 Z M199,192.2 L198.4,193.2 L199.8,192.6 L199,192.2 Z M195.8,194.6 L196,193.6 L194.8,193.8 L194.4,194.6 L195.8,194.6 Z M199.6,199.6 L198.4,198 L197.6,195.6 L194.6,197 L194,199.2 L191.6,199.2 L191.8,201.2 L195.4,200.4 L198.4,201.2 L199.6,199.6 Z M206,199.6 L208.2,197.4 L206.4,196.6 L205.2,198.6 L203.4,197.8 L203.2,199.4 L204.8,199.8 L206,199.6 Z M188.6,198.2 L189.4,199 L190.6,198.4 L189.8,198 L188.6,198.2 Z M199.2,205 L201.4,204.4 L201,202.4 L199.2,205 Z M193,207.2 L194.6,207 L193,206 L193,207.2 Z M199,211.8 L199.8,210 L201,210.2 L200.2,211.4 L199,211.8 Z M213,216.8 L211,216 L209.8,215.2 L211.4,213.2 L214,211.6 L214.6,212.6 L212.4,214.4 L213,216.8 Z M253.2,212.2 L254.6,212.2 L255,213.4 L253.8,213.2 L253.2,212.2 Z M186.2,212.6 L188.2,212.6 L188.6,214.2 L186.6,214 L186.2,212.6 Z M201.6,213.2 L203.4,213.2 L203.4,214.6 L201.8,215.4 L200.2,216 L200,214.4 L201.6,213.2 Z M205.8,215.4 L205.6,214 L206.8,213.2 L207,214.8 L205.8,215.4 Z M223,214.4 L224,215 L223,215.8 L223,214.4 Z M239.2,216.4 L237.4,217 L238,216.6 L238.4,215.6 L239.6,215.4 L239.2,216.4 Z M229.8,219.6 L230,218 L229.2,217.8 L228.2,218.2 L229.2,216.2 L231.2,218.2 L229.8,219.6 Z M254.8,217.6 L255,216.6 L256.8,216.8 L258.4,219 L257.8,219.6 L256.4,217.8 L254.8,217.6 Z M217.6,219 L216.6,218.6 L216.2,217 L217.4,217.4 L217.6,219 Z M206,217.6 L205.2,219 L203.6,219.2 L204.2,218 L206,217.6 Z M221,222 L221.2,221 L222.4,220 L223.8,218.6 L224.8,218 L224.2,219.2 L223.6,220.8 L221.8,221.6 L221,222 Z M214.6,219.8 L214,219.2 L213.4,218.4 L212.2,219.8 L209.8,220.6 L208.4,219.4 L209.2,218.2 L211.4,218.8 L213.4,218.4 L214.8,219 L214.6,219.8 Z M250.8,221.2 L251.6,220.4 L252.6,220.4 L252.2,221.4 L250.6,222 L250.8,221.2 Z M206.6,223.6 L206,223.4 L206.6,223.4 L206.6,222.6 L206,221.6 L207.4,222.2 L206.6,223.6 Z M247.6,222.6 L247.8,224.4 L246.8,223.4 L246.4,222 L247.6,222.6 Z M262.2,224.8 L262.2,223.6 L260.6,223 L259,223.4 L259.8,225 L258.4,225.4 L257.8,223.4 L259.8,222.6 L262,222 L262.8,223.6 L263.2,224.8 L262.2,224.8 Z M200.6,223.6 L200,222.4 L201.8,222.6 L202.2,223.8 L200.6,223.6 Z M213.4,223.8 L213.2,222.4 L214.4,223 L214.8,224 L213.4,223.8 Z M247.6,228.2 L245.2,226.4 L243.4,224 L242.2,224.6 L241.2,223.8 L242,223 L245.8,225 L248.2,227 L247.6,228.2 Z M193.2,224.6 L191.4,224.6 L191.8,224 L193.4,223.4 L193.2,224.6 Z M220,225.6 L218.8,227.6 L217.6,226.6 L219.4,224.6 L221.4,223.6 L221.8,224.6 L220,225.6 Z M217,224.8 L215.8,225.8 L215.6,225.2 L216.6,224.4 L217.4,224 L217,224.8 Z M227.8,226.4 L226,226.4 L226.6,225.4 L228.4,224.8 L227.8,226.4 Z M238.4,226 L238,225 L239,225.2 L239.4,225.8 L238.4,226 Z M187.4,230.4 L186.6,229.2 L189,227.8 L188,225.8 L188.8,225.2 L192.6,227.8 L192.6,228.4 L190,228.2 L187.4,230.4 Z M204.8,229.8 L205.2,230.8 L204.2,230.8 L203.4,228.2 L205.2,227 L205.6,228.4 L204.2,229.4 L204.8,229.8 Z M252,228.2 L251,228.6 L251.6,228 L252.8,227 L253.2,227.6 L252,228.2 Z M224.6,229.6 L223.6,229 L224.2,228.2 L225,228.8 L224.6,229.6 Z M230.4,230.8 L230,229.4 L230.8,230.2 L231.2,231 L230.4,230.8 Z M201,232.2 L199,233 L197.6,231.2 L199.8,229.8 L201.4,231.2 L201,232.2 Z M192.8,232.8 L191.6,232.4 L191.6,231.4 L192.6,230.4 L193.4,231.2 L192.8,232.8 Z M246,232.8 L244.8,232.8 L244.8,232 L245.6,231 L246.2,231.2 L246,232.8 Z M417.4,172.6 L417.8,168.2 L417,144.2 L417.6,136.2 L417.2,132.4 L417.2,124.4 L418,120.4 L417.6,114.4 L418,104 L415.6,100.4 L411.2,98.4 L407.2,98 L403.4,98 L399,98.4 L394.8,97.8 L391.2,98.2 L387.2,98 L382.4,100 L380.4,104.2 L380.2,140.6 L381,144.8 L381,148.6 L380.2,152.8 L380.4,160.8 L379.4,164 L376.6,163.2 L367.8,154.2 L364.8,151.8 L357.8,144.6 L354.6,142.2 L352.4,139.4 L348.2,135 L342,129.8 L339.8,126.8 L336,124.2 L334,121.2 L330.6,118.8 L328,115.4 L317.2,104.4 L309.2,99 L303.8,97.4 L299,99.8 L296.4,103.6 L296.8,131.6 L296.4,135.6 L297,143.8 L296.6,147.4 L296.8,151.6 L296.2,155.8 L297,184.4 L296.6,188 L296.6,191.8 L296.2,196.2 L296.2,200 L296.8,204.2 L296.6,212.4 L297,216.4 L296.4,224 L297,228 L297,231.8 L298.8,236.2 L302.6,238.4 L309.4,238 L319.4,238.6 L323.6,238 L328.2,238.4 L332.2,236.4 L334,232.4 L333.4,228.4 L334,179.4 L333.2,175.2 L335.2,172.8 L337.8,173.4 L366.4,201.4 L369.6,204 L389,223.4 L391.6,226.6 L394.8,229.2 L397.2,232.2 L399.8,234.8 L405.6,237.4 L410.8,239 L415.4,236.8 L417.2,232.6 L418.2,178.2 L417.4,172.6 Z M304.8,105.4 L306.4,108 L307.8,109.6 L308.8,108.8 L307.8,107.6 L309.6,107 L310.8,108.8 L310,112 L311.4,112.8 L313.2,111.4 L316.2,111.4 L314.8,113 L312.6,114.2 L311.2,115 L312.2,116.4 L310.2,117 L309,112 L306.8,109.2 L305.6,110 L305,112.2 L305,113.6 L304.2,112.6 L302.8,111.4 L302.4,108.4 L304.8,105.4 Z M386.6,106.2 L386.4,108.8 L384.2,109 L386.6,106.2 Z M389,107 L390.2,106.8 L390.2,108.8 L388.6,108.4 L389,107 Z M387.6,109.4 L388,110.2 L389.6,111 L389.4,113.2 L387.8,113.2 L387.2,112 L388,110.4 L387.2,109.8 L386.6,109 L387.6,109.4 Z M392.8,113.8 L395.4,111.8 L395.4,111 L396.2,111.2 L396.2,112.2 L393.8,114.6 L392.6,117.2 L392.8,113.8 Z M301.4,113 L303.8,115.4 L306,116.2 L305,117.4 L303,116.4 L302,115.2 L301.6,116.6 L299.6,117.4 L299.4,115.8 L301.4,113 Z M404.4,117.6 L405.4,118 L405.6,116.8 L406.6,115.6 L406.8,116.4 L407.4,117.2 L406.6,117.4 L404.6,119 L403.6,118.6 L404.4,117.6 Z M300.4,122.2 L300.6,120.2 L300.4,119 L301.8,118.2 L304.2,119.2 L306.6,121.8 L306.8,124 L307.2,125.6 L309.2,124 L309,126.6 L307.8,128.6 L307.6,127.4 L307.2,125.6 L305.6,125.2 L304.6,126.2 L303.8,125.2 L302.2,124.2 L301,124.6 L301.4,125.4 L302.2,126.2 L301.4,125.6 L299.6,124.2 L300.8,124 L300.4,122.2 Z M313.8,119.4 L314.2,118.4 L315.8,119.6 L315.4,120.8 L314.8,119.8 L314.4,119 L313.8,119.4 Z M387.4,119.6 L388.6,118.4 L390.2,120.2 L388.6,119.6 L387.4,119.6 Z M400.8,120.4 L402,122 L400.4,122.8 L399.8,121.2 L400.8,120.4 Z M318.4,122.8 L319,125.6 L319.4,126.6 L320.4,125 L322,125.6 L322.4,127 L320.2,128.4 L314.8,122.8 L314,121.2 L315.2,122.4 L318.4,122.8 Z M327.2,125.4 L325,124.6 L324.8,123.4 L325,122.6 L326.6,123.2 L328.8,124.2 L327.2,125.4 Z M391.6,124.2 L390.4,126.2 L389.4,125.6 L389.6,123.2 L391.6,124.2 Z M311.6,131.6 L312.8,129 L315.2,127.8 L314.4,130.6 L311.6,131.6 Z M305.4,129.4 L304.8,128.8 L305.6,128.4 L305.4,129.4 Z M398,130 L398,130.8 L397.8,131.6 L396,131.4 L394.6,129.8 L392.8,129.2 L391.4,130 L391.8,132.2 L390.4,130.8 L391.2,130 L390.8,128.8 L393,128.4 L395,129.4 L396.4,130.4 L398,130 Z M304,148.2 L303.4,146.4 L302,147.8 L300.8,147.4 L302.2,146.2 L301.4,145 L304.2,145.4 L302.8,143.2 L302.2,140.6 L300.6,140.8 L301,138.2 L300,137.6 L300.6,137 L301.8,135.4 L299.8,134.6 L299.8,131.2 L303.8,130 L305.4,129.6 L305.4,130 L304.4,131.4 L301,132.2 L305.6,132.6 L304.6,134.2 L306.8,136.4 L305.2,137.8 L304,138.6 L306.6,140.6 L307.8,143.4 L305.8,145.8 L307,150.6 L304.6,152.2 L305,150.2 L304,148.2 Z M309.8,138 L311.6,136.2 L310.8,139 L308,138.2 L309.8,138 Z M305.2,141.6 L304,141.2 L304,142.6 L306,143 L305.2,141.6 Z M311.2,144.8 L309.4,144.2 L310.4,143.2 L311.4,142 L313,142.4 L311.2,144.8 Z M315,145.4 L316.4,144.8 L317.6,143.2 L317.8,145 L316.4,145.4 L314.4,146.6 L315,145.4 Z M324,145.6 L322.6,145.6 L321.4,145 L323,144.6 L324,145.6 Z M400.2,148.4 L399.2,149 L401.2,152.2 L400.4,152.4 L398.8,151.6 L396.8,151.2 L397.4,149.8 L398.6,147.8 L400.2,148.4 Z M402.2,149.4 L403.2,149.6 L403.8,151 L405,151.8 L403.8,152.4 L402.2,151.8 L402.2,149.4 Z M300.8,163 L300.8,156.2 L300,155.6 L300.2,153.8 L301.4,152 L302.4,152.8 L301.8,154 L303.4,153.4 L304.2,154.8 L302.2,156 L304.2,161.8 L302,163.6 L302,165.2 L300.6,164.2 L299,163 L300.8,163 Z M387.8,152 L389.4,152.6 L388.8,154.2 L387.6,154.6 L386.4,154.6 L386.4,153.4 L387.8,152 Z M400.8,161.6 L398.4,159.4 L397,157.4 L395.2,157.4 L395,159 L392.8,157.2 L393.8,154.6 L393,153.4 L393.2,152.4 L394.6,152.6 L394.6,154.4 L395.6,155.8 L398.2,156 L399.8,157.4 L400.2,158.2 L399.4,159.6 L402.6,159.6 L400.8,161.6 Z M411.2,156.4 L409.8,157.6 L407.6,158.6 L408.2,160.6 L406,161.8 L405.2,161.8 L405.6,160.6 L406.6,160.6 L405.4,158.6 L407.6,157 L411.2,156.4 Z M403.8,158.4 L402.8,159.6 L402.2,157.8 L403.8,158.4 Z M318.6,161.2 L319.4,159 L321.2,162.6 L318.6,161.2 Z M396.4,163 L395.4,161.8 L395.4,160.4 L397.2,160.6 L398.8,163 L399,164.8 L397.8,165.8 L397,164.2 L397.8,163 L396.4,163 Z M384.6,168.4 L384,167.8 L385,166 L384,163 L384,161 L384.4,163 L385.8,164.2 L385.8,170 L384.8,172 L383,170 L385,169.2 L384.6,168.4 Z M412.6,163 L412.4,164.4 L409.8,161.4 L412.6,163 Z M400.8,169.4 L399.4,168.4 L398.2,169.4 L395.4,168.8 L392.8,166 L395,165.4 L397.2,167.4 L397.6,169 L399.2,167 L400.6,163.6 L402.2,168 L402.8,170.2 L401.8,170.4 L400.8,169.4 Z M317.2,165.2 L315.8,165.2 L315.8,166.2 L316,167 L315,166.8 L314.4,169.6 L312.6,169 L314.4,167 L313.8,166 L314.8,164.8 L318.6,164.8 L319.8,165.6 L318.4,165.8 L317.2,165.2 Z M389.6,166.4 L391,167.8 L390,168.8 L388.8,167.4 L388,166.4 L389.6,166.4 Z M410.8,167 L411.8,166.4 L412.2,166.8 L411.2,167.6 L410.8,167 Z M407.8,179 L405.4,180 L404,177.2 L405.2,176.2 L405,175.2 L404,171 L405.4,166.8 L406.6,166.6 L406.6,168.6 L407,169.4 L406,169.8 L407.4,172.2 L405.4,173.6 L406.6,175.4 L410.2,172.8 L408.6,171.8 L408.6,170.8 L410.4,171.2 L412.2,173 L410.4,174.4 L411,176.2 L412.4,178.2 L409.2,178.6 L408.2,175.8 L407.4,176.4 L407.8,179 Z M301.2,170.4 L302.6,166.8 L302.8,169.8 L301.2,170.4 Z M411.8,170.2 L411.6,169.2 L412.2,167.8 L412.2,167 L412.8,167.8 L411.8,170.2 Z M351.8,169 L351.2,168.6 L350.8,167.4 L352,168 L351.8,169 Z M392.2,175 L392.8,176.4 L391.2,176.2 L390.8,175.2 L389.2,174.6 L390,173.2 L391.6,171.2 L392,170 L392.8,170 L393,171.6 L394.6,172.4 L393.4,173 L391.8,172.8 L390.8,172.4 L390.2,173.2 L392.2,175 Z M313.8,173.4 L312.8,172.6 L314,171.6 L314.6,170.8 L314.6,172.4 L313.8,173.4 Z M398,175.6 L397.4,173.2 L398,171.2 L399.4,171 L400.4,174.2 L398,175.6 Z M313.4,178 L312.2,177.6 L310.6,176.6 L311.4,175.4 L313.4,178 Z M408.6,196 L406.4,193.2 L404.6,193.8 L406,194 L407.8,197.6 L410.4,200.6 L412.6,201.4 L412.8,205 L411.2,205.8 L410.4,204 L409.2,207 L408.6,210 L411.6,209.4 L412.4,211.2 L412.6,214 L411.6,214.4 L410.8,212 L409.8,212 L408.8,213.2 L408.8,214.4 L408,216 L409.8,215.6 L410.4,216.6 L409.4,218 L407.6,216.8 L407.2,211.4 L401.6,209.4 L403.4,207.8 L404.8,207.8 L406,206.2 L406.4,204.8 L405,204.6 L405.4,203.4 L404.6,202.4 L400.4,200.4 L400.8,201.6 L402.2,204.6 L399.8,206.8 L398,209.6 L397.2,208 L396,207 L392.8,208.4 L391.8,207.2 L392.2,206.2 L393.4,206.4 L390.2,204.8 L389.4,203.4 L389.6,207.2 L388.6,206.8 L389.4,206 L387.8,205.2 L383.8,201.8 L384.4,200.2 L386.8,201.6 L388.8,203 L389.6,201.8 L388.4,200.2 L385.6,198.4 L382.2,200.6 L380.2,198.8 L381,195.8 L379,193.6 L380.2,191.4 L378,189.8 L376.2,188.6 L375.6,190.4 L377.6,193.6 L378.2,196.8 L375.6,196.2 L376.6,194.2 L374,192 L372,190.4 L370.4,189.2 L371.8,189.4 L374,188.6 L375.2,188.6 L379.2,185.2 L377,182.8 L376.4,182 L376.8,181 L381,185.6 L377.4,188.4 L381.2,188.6 L382.2,187.6 L382.2,188.8 L380.8,189.4 L382.8,192.6 L382,194.4 L384.2,196.8 L388.4,198.2 L388.6,195.4 L390.2,194.4 L389.4,192.8 L387.4,192.2 L389.6,191.4 L390.4,189 L389.4,187.4 L390.8,187.2 L391.6,186.6 L393,188.8 L393,192 L394.8,192.8 L395.2,189.2 L396,186.8 L393,186.6 L391.6,185 L390.6,184.2 L389.6,184.8 L386.2,183.8 L385.2,180 L386.6,179.4 L387.4,180.8 L387.6,179.4 L389.6,177 L390.2,178 L388.6,178.8 L390,180.2 L387.2,182 L387.6,183 L390.4,182.4 L392.6,184.6 L394.4,185.4 L398.4,182.4 L398,181.4 L399.2,181.6 L399.8,182.6 L400.6,180.6 L404.2,180.4 L403.8,181.8 L402.4,181.4 L402,182.2 L402.2,183.8 L401,183.6 L398,186 L399.2,189 L400.6,188.2 L402.2,188.8 L404.4,187 L404.4,184 L406,183.4 L406.4,184.8 L408.2,182.8 L409,180 L411.4,179.4 L412.6,181.6 L410.8,183 L410.6,184 L413,185.4 L411.8,187.4 L412.4,189 L411,190 L409.6,187.8 L409.4,187.6 L409.2,187.8 L409,187.2 L408.6,187 L408.6,189 L408.2,191.2 L410.2,192.4 L411.8,193.6 L411.8,192.6 L412.8,194 L411.8,195.2 L412.4,196.4 L414.2,198.4 L412.2,199.4 L410.8,199.4 L409.6,198.2 L410.6,197.6 L408.6,196 Z M399.4,178.4 L401,177 L400.6,179.4 L398.8,179.8 L399.4,178.4 Z M306.6,184.8 L305.6,184 L304.6,184.2 L303.6,183 L305.4,182.4 L304.8,181.4 L302,180.6 L301.2,178 L301.8,177.2 L302,178 L303.4,178.4 L305.6,177.2 L307.6,177.6 L307.4,178.8 L305.8,180.6 L307.8,181.8 L309.6,181.4 L306.6,184.8 Z M395.2,178.8 L395,180 L393.4,180 L393,177.8 L395.2,178.8 Z M371.4,181.6 L373.4,181 L373.2,179.2 L373.8,178 L374.6,180 L372,182.6 L370,182.6 L371.4,181.6 Z M311.8,187 L311.8,185.8 L309.4,184.8 L310.4,183.4 L311,184 L312.2,183 L313.4,181.6 L314.2,182.6 L313.8,184 L314.4,185.8 L314.6,188.8 L312.6,189.2 L313.2,187.8 L311.8,187 Z M328,183.6 L326.6,183.6 L326.6,181.8 L328.2,181.6 L328,183.6 Z M321.4,184.6 L319.2,185.2 L320,182.8 L321.4,184.6 Z M409,185.6 L407.2,186.4 L408.6,186.6 L409,187.2 L409.4,187.6 L409.8,186.8 L409,185.6 Z M308,185.8 L307.8,187 L306.6,187 L306.4,185.8 L308,185.8 Z M305.2,188.2 L304.8,189.4 L302.8,189.6 L302.8,188 L305.2,188.2 Z M388,188.4 L387.8,190.4 L386.4,189.4 L385.4,191.2 L384.2,191 L384.6,188.6 L388,188.4 Z M369.2,192.4 L369,190.8 L368,189.6 L369.6,188.6 L369.2,189.2 L370,191.4 L369.2,192.4 Z M300,195.4 L300.2,194 L301.2,191.4 L302.6,190.8 L303.2,192 L301.4,194.4 L300.6,195.8 L300,195.4 Z M368.2,195 L367.8,197 L365.6,197.6 L365.8,196.6 L364.6,195.8 L363,194.6 L364.6,193.4 L365.8,193.6 L364.6,194 L365.8,194.6 L368.2,193.2 L369,193 L368.8,193.6 L369.2,194.2 L368.2,195 Z M303.4,211.6 L301.6,212.6 L301.2,210.2 L301,206.4 L301.4,204.6 L301.6,202.2 L304.6,203.2 L305.6,203.6 L305.6,202.6 L303,200 L304.8,197.6 L304,195.4 L305.4,194.4 L306.6,193 L307.8,193 L307.8,194.2 L308.2,195.2 L311.6,196.2 L311.8,197.6 L310.8,197 L309.4,196 L307.6,196.2 L308.6,198.8 L310.8,199.8 L311.8,199.4 L311.6,200.6 L309.4,200.8 L306.4,200.2 L306,202.2 L307.2,202.8 L309.2,202 L310.6,202.8 L311.8,202.2 L312.8,202.8 L312.6,206.2 L310,206.2 L309,207.6 L309.2,206 L307.6,204.4 L304,206.8 L302.4,209.2 L304.4,210 L303.4,211.6 Z M372,197.4 L374,197.4 L374,199.6 L373.4,200.6 L372.2,199.4 L372,197.4 Z M392.8,198.8 L391.8,197.8 L390.4,197.4 L392,199 L391.2,201 L392.8,198.8 Z M403.6,199.8 L405.8,201.4 L407,200.2 L404.2,198.4 L403.6,199.8 Z M316.8,202.6 L315,200.6 L314.2,198.8 L316.8,200 L317.2,199.2 L318,200.2 L318.4,202.4 L316.8,202.6 Z M392.4,204.4 L393.4,203.8 L395,205 L398.2,204.2 L398.6,201.6 L393.6,200.4 L392.4,204.4 Z M374.4,201.4 L373.8,201 L374.8,200.8 L375.6,201.4 L374.4,201.4 Z M383.4,210.6 L383.4,211.8 L382.2,210.8 L382.6,209.4 L381.6,206.8 L379.2,205.2 L378.6,205.8 L378.4,207.6 L377.6,208.4 L378,205.8 L379,205.4 L378.6,203.6 L381.4,202 L383,205.4 L384.6,207.6 L383,208.6 L383.4,210.6 Z M323.4,203.8 L321.8,203 L322.8,202.2 L324.6,203 L323.8,204.2 L323.4,203.8 Z M325.2,205 L324,204.2 L325.2,203.8 L325.2,205 Z M304.8,208.2 L305.8,207 L307,209.2 L304.4,209.2 L304.8,208.2 Z M307.8,212.6 L307.8,210.8 L309.4,209.4 L310.6,208 L311.4,209.2 L311.6,210.6 L311,212.4 L307.8,212.6 Z M384.8,211.6 L385.8,208.6 L386.6,209 L386.4,211.2 L387,214 L384.8,211.6 Z M398.8,216.8 L397,216.8 L396.8,213.2 L397.8,212.4 L399.2,213.6 L398.8,216.8 Z M401.8,214 L404.6,212.8 L406.2,212.6 L406,216 L403.4,215.8 L401.8,214 Z M304,216.6 L301.4,216 L301.4,214 L304,214 L304,216.6 Z M320.2,216.6 L319.2,216.4 L319.4,215.2 L320.4,216 L321,216.8 L321.6,217.2 L320.2,216.6 Z M311,218.2 L311.2,216.2 L312.8,216.4 L313.4,218.6 L311,218.2 Z M406.6,220.6 L404.8,220.8 L405,218.6 L406.8,218.4 L406.6,220.6 Z M401,222 L401.6,220 L402.6,218.8 L403.4,221.4 L401,222 Z M411.8,224.8 L409.4,223.8 L408.6,223.4 L409,220.6 L410.4,220.8 L410.6,222.4 L412.2,223.2 L411.8,224.8 Z M307.8,224.8 L306.2,225.4 L305,225.4 L306.4,224.4 L306.6,222.2 L307.8,223.2 L307.8,224.8 Z M402.2,230.4 L400.6,231.4 L401.4,229.8 L402.4,229.2 L402.2,230.4 Z M585,158.4 L583.6,150.2 L578.6,135.2 L574.8,127.8 L570.4,121.8 L564.8,115.6 L559,110.6 L554.4,107.4 L548.4,104.8 L545.4,102.6 L530,97.8 L518.4,95.8 L513,95.6 L491.8,98.6 L476.8,104.2 L473.8,106.4 L470.2,108.2 L463.4,113.2 L453.6,124.6 L447.4,135.2 L444.4,142.8 L441,158.2 L440.4,174.4 L441,178.6 L442,182.2 L442.4,186 L444.2,193.6 L453.4,211.8 L455.8,214.2 L458.4,217.4 L461.4,220.2 L463.6,222.8 L470.2,228 L485.8,236 L491.6,238 L496,238.4 L503.2,240 L507.4,240.4 L518.6,240.2 L530.6,238.6 L545.6,233.6 L552.2,230 L555.2,227.6 L559,225.8 L564.6,221 L567.2,217.4 L570,214.6 L578.8,201.2 L581.8,193.6 L583.4,186 L583.6,182.4 L584.6,178.4 L584.8,174.2 L585.6,168.4 L585,158.4 Z M527.6,104.6 L530.2,104 L530,106 L531.2,107.2 L532,108.8 L530.6,107.8 L528.8,107.2 L527,107.8 L525.8,107.2 L527.6,104.6 Z M515.4,104.8 L514.2,105.4 L514.2,106.4 L513.8,105.4 L515.4,104.8 Z M503.6,105.6 L504.8,106.4 L503.2,106.6 L502.6,106 L503.6,105.6 Z M535,105.8 L537.4,107 L539.4,108.2 L539,109 L537.2,109.4 L535,108 L535,105.8 Z M494,107 L496.4,108.2 L495.4,110 L492.6,108.8 L492,106.8 L494,107 Z M485,107.4 L485.2,108.6 L484,109 L483.8,107.8 L485,107.4 Z M486.6,109.4 L489,109.8 L488.2,111.6 L486,111.2 L486.6,109.4 Z M522.4,111.8 L522.4,113.2 L521.2,112.8 L521,112 L522.4,111.8 Z M479,114.6 L480,113.8 L481.4,112.2 L482,113 L480.8,114.8 L478.6,115.4 L479,114.6 Z M503.6,112.2 L504.4,112.2 L503.4,113 L502.2,112.4 L503.6,112.2 Z M543.6,113.6 L544,114.6 L542.6,114.4 L542.4,113.4 L543.6,113.6 Z M516,114.4 L515.4,115.2 L514.6,114.8 L515.6,113.6 L516,114.4 Z M535.8,114.6 L536.8,115.8 L538.4,116 L538.2,117.4 L535.2,117.8 L534.4,115.8 L535.8,114.6 Z M525.6,115.2 L526.8,115.4 L527,116.8 L525.6,116.6 L525.6,115.2 Z M488,115.6 L487.8,117.2 L486.6,118 L486.8,116.4 L488,115.6 Z M463.6,121.4 L465.4,121.4 L466.4,121.8 L468.4,120.2 L470.6,119.8 L469.6,119.4 L467.6,119.2 L466.8,118 L469.4,116.6 L471,118.2 L471.2,119.4 L473,120 L472,121.2 L470.8,120.2 L470.2,122.4 L471.4,124 L474.8,125.6 L474.6,127 L471.6,128.2 L470,127 L471.6,127.2 L471.6,125.4 L469.4,124.6 L467.4,125.6 L467.4,124 L467.8,122.6 L464.6,122.6 L465,127.2 L463.4,130.4 L461.4,130 L459.2,124.8 L463.6,121.4 Z M476.4,122.4 L477.8,121.2 L478.2,122.2 L477.2,123 L475.2,123 L476.4,122.4 Z M537.8,125 L536,123.8 L535.8,122.2 L537.6,123 L537.8,125 Z M483.4,124.2 L482.8,125.2 L481.2,124.8 L482,123.8 L483.4,124.2 Z M476,128.2 L477.4,127.6 L479,125.8 L478.6,128.4 L476,128.2 Z M449.6,139.4 L451.4,137.6 L453.2,136 L453.4,133.6 L455.2,133.8 L456,132.6 L454.4,131.4 L456.4,130 L458.4,129.2 L458.6,131 L459.2,135.6 L463,140 L463.8,142 L461.8,145 L458.4,146.2 L459.8,147 L461.6,148.6 L460.4,149.8 L460.2,151.6 L458.2,151.6 L454.2,149.4 L450.6,149 L450.2,147.6 L448.6,148 L448.6,146.2 L448.2,141.8 L449.6,139.4 Z M463.6,133.2 L467.8,131 L468.6,129.4 L469.6,129.6 L468.4,132.4 L466.8,133.8 L465,135.4 L466.2,136.4 L467.8,137 L468.4,138.8 L470.2,138.2 L469.6,140 L467.2,141.4 L466.4,140.2 L466.2,138 L461.8,135.4 L460.6,133 L460.6,131.8 L461.6,132.6 L460.8,133.4 L463.6,133.2 Z M472.2,131.2 L470.8,131.6 L471,130.4 L472.2,130 L472.2,131.2 Z M558.2,130.4 L559,131 L557.8,132.6 L558.2,130.4 Z M545,185.4 L542.8,189 L541.6,192 L538.8,195.2 L529.2,201.8 L525.6,202.8 L522.6,204.2 L518.6,205 L507.6,205 L503.2,204.4 L496,201.4 L492.8,199.6 L487.4,195.2 L484.8,192.4 L482,188.6 L481,185.4 L479.2,181.8 L477.6,174.4 L477.6,162.2 L478.6,158.6 L479.2,154.8 L480.8,151.2 L482,147.6 L486.8,141.2 L496.8,134.4 L499.4,133.4 L507.2,131.4 L512.8,131 L522.4,132.2 L526,133 L529.6,134.6 L535.8,139 L543.6,147.2 L546,154.8 L547.8,158.6 L548.4,162.2 L548,174.4 L546.4,181.8 L545,185.4 Z M566.2,132.4 L567.6,133.2 L566,133.8 L565,133.8 L566.2,132.4 Z M472.8,133.8 L473.2,134.8 L472.2,136 L471.8,134.8 L471.8,133.4 L472.8,133.8 Z M542.6,134.8 L543.8,134.4 L543.6,135.6 L542.4,135.6 L542.6,134.8 Z M569.4,136 L569.6,134.4 L570.6,135.8 L569,136.8 L569.4,136 Z M457.6,140.8 L460.2,138.2 L458.2,137 L456.4,137.2 L455.8,138.6 L457.4,139 L455.8,140.6 L457.6,140.8 Z M554.4,138 L555.4,137 L557,137.2 L556,138.8 L553.8,139 L554.4,138 Z M561.8,137 L563.8,137 L562.8,138.2 L561.2,138.4 L561.8,137 Z M559.4,142.8 L561,141.2 L561.8,141 L565.2,140.6 L567.2,142.8 L566.4,142 L563.8,141.2 L561.4,143 L558.8,145.6 L559.4,142.8 Z M453.2,142.2 L453,141.2 L450.2,142 L450.8,142.8 L453.2,142.2 Z M575.6,143.6 L575.6,145.2 L574.6,146.2 L574,145.4 L575.6,145.2 L573,143.8 L570.4,141.8 L572.8,141.8 L575.6,143.6 Z M451,145 L455.6,146.6 L457,145 L457.2,142.4 L456,142.4 L454.8,142.8 L455.2,144 L454.6,144.8 L453.4,143 L452.2,142.8 L451,145 Z M469.2,144.2 L468.4,144.8 L468.2,143.4 L468.6,142.6 L469.2,144.2 Z M570.6,144.2 L569.6,146 L567.4,146 L568.4,144.6 L570.6,144.2 Z M476,144.6 L475.8,145.4 L474.2,146 L474.8,145.6 L475.4,145 L476,144.6 Z M466.4,148.8 L465,149.4 L463.4,148.2 L463,145.6 L465,145 L466.8,147.4 L468.8,147.2 L469.2,146.6 L469.8,147.2 L468.6,147.4 L468.6,148.6 L466.4,148.8 Z M563.6,147.2 L563.6,145 L565,145.4 L566.6,147.4 L566.4,149.8 L566,148.2 L563.6,147.2 Z M579.4,157 L580.4,157.8 L578.4,159.4 L578.6,161.2 L579.6,162.8 L577.8,163.8 L576.8,161.6 L575.4,160.8 L576.2,163.2 L573.4,164 L572,162.4 L573,161.2 L572.6,159.4 L574.8,160 L577.8,158.4 L579.2,158 L577.2,157 L575.2,156.8 L574,157 L571.8,156.2 L570.4,155.6 L568.2,153.6 L566.8,152.6 L565.8,153.8 L562.8,152.8 L562.8,150.8 L561.2,150.2 L562.8,149.6 L564.6,151.6 L565.6,153.2 L566.8,152.6 L567.8,151 L568.4,148.4 L570,149.4 L569.4,152.6 L572.2,153.6 L573.6,152 L574.8,152.4 L573.8,155.2 L574.8,156.2 L577.2,155.8 L579.4,157 Z M446.2,157.8 L446.4,156.2 L447.8,155.6 L449.6,155.4 L448.8,151.4 L453.6,150.4 L455.4,152.4 L454.2,154.6 L457.4,155.6 L458.8,157.2 L460.4,158 L458.4,158.8 L456.2,157.4 L456.4,156.2 L453,157.4 L451.4,159.2 L453.4,159 L453.2,159.6 L454.2,160.8 L451.4,161.6 L447.8,163.8 L447.2,161.2 L445.6,160.2 L448,159.6 L448.2,158.4 L446.2,157.8 Z M558.2,152.6 L556.8,152 L556,150.8 L557.8,151.4 L558.2,152.6 Z M453,151.8 L451.8,151.8 L451,153 L452.4,153.8 L453,151.8 Z M473,157 L471.8,155.8 L473.4,154.8 L473.4,156 L473,157 Z M566.4,160 L565.4,158.2 L566.8,156.6 L568,159 L566.4,160 Z M463.4,160.6 L461.8,161.8 L460.8,161.6 L461.6,159.4 L463.2,157.4 L465.2,157.2 L465.2,159 L463.4,160.6 Z M456.2,157.4 L457,158.6 L456.2,158.6 L456.2,157.4 Z M560.4,161.2 L559.2,161.6 L557.6,160.4 L557.6,159.4 L558.6,159.6 L560.2,160.4 L560.4,161.2 Z M566.4,160 L566,160.2 L565.4,159.4 L566.4,160 Z M465.2,162.6 L464.2,162.8 L464.2,161.6 L465,161 L465.2,162.6 Z M468.4,165.2 L468.6,163 L470.2,163.4 L473,162.2 L473,163.8 L470.6,165 L470.8,166 L468.4,165.2 Z M577.8,186.2 L580.6,187.2 L578,189.2 L575.4,192.6 L575,194 L576.8,195.8 L576.6,196.4 L576,197.4 L574,195.2 L572.4,194.4 L571.2,195.4 L569.6,194.2 L571.2,193 L572.6,193.4 L573.6,192.4 L573.8,191.6 L574.6,189.6 L572.6,190 L573.2,188.6 L569.4,185.8 L566.4,186.8 L567.4,187 L569.4,187.8 L567.2,190.8 L565.6,191.2 L566.8,192 L563.8,192.4 L559.4,192.6 L557.8,193 L556.4,192.4 L557.6,192.4 L558.4,192 L559.8,192 L560.4,190.8 L560.4,189.6 L562.6,190.6 L566.2,189.2 L566,186.8 L565.2,188.6 L563.6,189.8 L564.2,187.8 L563.6,185.6 L559,185 L559.6,187.8 L558.2,189.6 L556.4,190 L554,189 L551.8,186.8 L551.8,185.8 L553.8,185.6 L555.4,188.6 L556.4,187.4 L556.6,185.6 L553.6,184 L550.8,184.4 L550.2,182.6 L553.4,183 L557.2,183 L560.2,184 L561,182.8 L560.6,181 L559.4,180.8 L557.6,181.4 L557,180 L558.2,178.8 L557.8,178 L556.2,178.4 L558,176.4 L561.4,178.4 L564.2,176 L563.4,173.6 L563.4,171.6 L560.6,171.6 L559.8,171.2 L559.8,170.2 L563,169.8 L565.2,167.2 L566,166.2 L567.4,166 L567,164.2 L567.4,162.4 L568.8,162.2 L569,164.2 L568.6,165.2 L570.2,168.6 L569.4,167.8 L567.6,169.6 L565.4,171.6 L568.2,173.2 L572.4,171.6 L573,169.4 L573.8,168.6 L575.8,168.4 L576.8,166.6 L578.4,164.2 L580.6,164 L580,166.6 L578,168 L578.2,169.2 L580.6,170.2 L579.4,172.8 L577.4,172.8 L576.2,175.6 L579.2,179.8 L581.6,182.8 L579.6,184.2 L578.2,183 L577.2,181.4 L576.8,179.4 L575.2,181.6 L577.8,186.2 Z M452.8,184.6 L451.8,184 L453,183 L452.2,182.6 L448.2,182.8 L446.6,178.4 L447.8,176.2 L448.6,176.4 L449.6,175.2 L447.2,174.6 L445.2,175 L445,174 L446.6,173.4 L445.8,171.8 L444,171.8 L446.6,169.6 L450.8,169.6 L450.4,171 L448.8,170.8 L448.8,172.2 L450.8,173.6 L452.8,173.2 L454,170.6 L456.8,171.4 L458,169.4 L457.4,167.4 L455.2,169.4 L452.8,166.2 L454,163.6 L455,164 L457.2,165 L458.4,166.6 L459.2,170.2 L461.4,172.4 L461.6,174.4 L459.2,175 L458,173.2 L455,172.4 L453.2,174.8 L451.6,175.6 L450.2,177.2 L450.6,178.4 L448.4,179 L448.4,180.2 L450.6,180.2 L453.6,177.8 L455.2,175.6 L457.4,176.2 L459.8,177.2 L459,178.4 L455.6,177.6 L453.2,179.2 L452.2,179.6 L451.8,181.6 L454,182.6 L453.6,183.6 L452.8,184.6 Z M556,164.4 L557.6,164.6 L557,165.8 L555.2,166.6 L556,168.4 L557.8,167 L558.2,168.8 L553.8,168.4 L553.4,164.4 L556,164.4 Z M448.2,166.2 L446.8,167.4 L446.8,165 L448,165 L448.2,166.2 Z M467,166.4 L465.2,166 L466,165.4 L467.2,166.2 L467.8,167.2 L467,166.4 Z M471.2,166.4 L473.4,167.2 L471.2,168.8 L471,167.4 L471.2,166.4 Z M464.8,173 L464,174 L463,172.4 L464.8,170.8 L465.2,169.6 L467.4,169.8 L467.4,172 L464.2,172 L464.8,173 Z M577,170.4 L575.6,169.6 L575,170.2 L574.8,171.8 L576.6,171.6 L577,170.4 Z M555.4,170.4 L555.4,171.8 L554.2,171.8 L554,170.6 L555.4,170.4 Z M560,172.8 L560.4,175 L558.2,174.4 L557.8,172.4 L560,172.8 Z M470.6,173.2 L470.6,174.4 L469,173.6 L470.6,173.2 Z M554,173.2 L555.6,174 L555.6,175 L554.6,174.4 L552.8,176 L552.4,174.8 L554,173.2 Z M461.8,186.8 L460.4,186.2 L458.2,187.4 L458.2,189.4 L457.2,190.2 L456.4,186.4 L457.4,184 L456.8,183.2 L458.2,184.6 L459.4,184 L459.6,184 L460.2,184.6 L460.8,181.8 L464.4,179.4 L465,176.2 L466,177.2 L468.2,176 L469.4,178 L466.4,180.4 L465.2,181.8 L463.8,182.8 L462.2,183.6 L466,184 L469.4,187.8 L470.8,186.4 L469.4,185.2 L470.6,184 L471.6,182.8 L470.6,180.8 L471,178.8 L473,179.2 L474.2,180.4 L472.2,181.6 L473.4,183 L475.6,184.8 L475.2,185.2 L473,184.8 L471.8,186.2 L473.2,187.8 L475.6,187.2 L475.6,188.6 L473.8,189.4 L469.2,192.8 L467.8,193.2 L467.8,194.6 L466.6,193.6 L468.4,191 L470.4,189.8 L468.2,188.6 L466.4,186.8 L463.6,186 L463.8,189 L461.8,186.8 Z M565.8,177.6 L566,178.8 L567.2,178.6 L568.4,178 L568.2,176.6 L565.8,177.6 Z M574.2,178.2 L572.6,178.8 L574.8,179.4 L574.2,178.2 Z M573.2,180.2 L572.6,179 L571.4,179.4 L571.6,180.8 L573.2,180.2 Z M454,181.2 L454.8,180 L455.4,181.2 L454,182.4 L454,181.2 Z M564.4,182 L566,182.4 L566.6,181 L564.8,180.4 L564.4,182 Z M571.6,185.2 L575,186 L575.4,184.8 L572.6,183.6 L571.6,185.2 Z M460.6,185.2 L460,184.4 L459.4,184 L459.2,185.4 L460.6,185.2 Z M446.8,188.2 L447,187.2 L448.6,187.6 L449,189.8 L449.4,190.4 L448.6,190 L447.6,188.8 L446.8,188.2 Z M453.2,189.6 L451.8,190 L452.2,189 L453.4,187.8 L453.2,189.6 Z M465.2,189.2 L466.6,188.6 L466.4,190.4 L465.2,191 L465.2,189.2 Z M549.2,190.8 L548,189.8 L549.2,188.6 L550,189.8 L549.2,190.8 Z M476.4,190.2 L478.6,190.2 L478.4,191.4 L476.4,191.2 L476.4,190.2 Z M456.8,192 L457.2,193 L455.4,193.8 L454.8,192.8 L456.8,192 Z M450.4,196 L449.4,196.2 L449.6,195.2 L448.4,193 L451.6,192.6 L452.4,194.2 L450.4,196 Z M473.4,196.4 L475.2,195.2 L476,195 L476.8,193.2 L478,194.6 L476.4,195.2 L475.6,195.8 L476.8,197 L476.4,198 L474.8,198.2 L473.4,196.4 Z M471.2,194.6 L470.8,193.8 L473,194.6 L471.2,194.6 Z M463.4,196.6 L462.2,197 L461,199 L459.8,197.8 L458.8,198.2 L458,198 L456.4,198.2 L455.2,196.2 L456.2,195.4 L457.4,196.8 L458.6,197.6 L460.6,197 L463,196.2 L463.8,195.8 L463.4,196.6 Z M470.2,196 L469.8,197.2 L468,197.4 L468.6,195.6 L470.2,196 Z M552.6,197 L550.4,197 L551.4,195.6 L553.8,196.4 L552.6,197 Z M558,198.8 L556.8,198 L556.8,196.8 L558.2,197.8 L558,198.8 Z M573.6,201 L572,200.2 L570.8,200.4 L570.2,199.8 L571.8,198.6 L573.8,197.4 L574.2,199.8 L573.6,201 Z M544.8,199.8 L545,197.8 L545.8,198.8 L546,200 L544.8,199.8 Z M562.4,200.2 L561.2,200.6 L561,198.8 L562.4,198.6 L562.4,200.2 Z M469,201.6 L466.4,200 L466.6,199 L470.2,199.6 L470.4,201.8 L469,201.6 Z M565.6,200.4 L565,199.4 L566.4,199 L566.8,200 L565.6,200.4 Z M455.2,202.8 L455,201.2 L456.6,201.2 L457,202.6 L455.2,202.8 Z M477.8,203.8 L475.4,203.2 L476.6,203.4 L478.6,202.8 L479.8,203.8 L477.8,203.8 Z M569.4,205.4 L570.2,203.2 L570.2,204.2 L570.6,205.8 L569.4,205.4 Z M565,206.6 L565,205.2 L566,205 L566.2,206.2 L565,206.6 Z M463.6,214 L462.2,215.2 L461.8,213.4 L463.8,211.6 L463.6,214 Z M466.4,214 L467,213.2 L466.6,214.2 L466.4,214 Z M467.2,214.6 L466.8,214.2 L467.8,214.8 L467.2,214.6 Z" id="Meno" sketch:type="MSShapeGroup"></path>
            </g>
        </g>
    </g>
</svg>